<?xml version="1.0" encoding="UTF-8" standalone="no"?>
<!DOCTYPE svg PUBLIC "-//W3C//DTD SVG 1.1//EN" "http://www.w3.org/Graphics/SVG/1.1/DTD/svg11.dtd">
<svg width="100%" height="100%" viewBox="0 0 24 24" version="1.1" xmlns="http://www.w3.org/2000/svg" xmlns:xlink="http://www.w3.org/1999/xlink" xml:space="preserve" xmlns:serif="http://www.serif.com/" style="fill-rule:evenodd;clip-rule:evenodd;stroke-linejoin:round;stroke-miterlimit:2;">
    <path d="M19,5L7,5L7,3L21,3L21,17L19,17L19,5Z" style="fill:rgb(120,144,156);fill-rule:nonzero;"/>
    <path d="M9,13L9,11L11,11L11,13L13,13L13,15L11,15L11,17L9,17L9,15L7,15L7,13L9,13Z" style="fill:rgb(159,211,182);fill-rule:nonzero;"/>
    <path d="M3,7L17,7L17,21L3,21L3,7ZM5,9L15,9L15,19L5,19L5,9Z" style="fill:rgb(120,144,156);"/>
</svg>
